<?xml version="1.0" encoding="utf-8"?>
<!-- Generator: Adobe Illustrator 19.0.1, SVG Export Plug-In . SVG Version: 6.00 Build 0)  -->
<svg version="1.1" id="Layer_1" xmlns="http://www.w3.org/2000/svg" xmlns:xlink="http://www.w3.org/1999/xlink" x="0px" y="0px"
	 viewBox="-212 313.1 186.1 166.9" style="enable-background:new -212 313.1 186.1 166.9;" xml:space="preserve">
<style type="text/css">
	.st0{fill:#FFFFFF;}
	.st1{fill:#BAB9B9;}
	.st2{fill:#878787;}
	.st3{fill:#BFBFBF;}
</style>
<g>
	<rect x="-203.5" y="362.6" class="st0" width="19.8" height="19.8"/>
	<rect x="-192.4" y="377" class="st1" width="17.5" height="17.5"/>
	<rect x="-212" y="391.3" class="st2" width="24.1" height="24.1"/>
	<g>
		<path class="st0" d="M-167.6,374.7h5.3V411h17.4v4.4h-22.7V374.7z"/>
		<path class="st0" d="M-106.6,394.6c0,14-8.5,21.5-18.9,21.5c-10.8,0-18.3-8.3-18.3-20.7c0-12.9,8-21.4,18.9-21.4
			C-113.8,374-106.6,382.5-106.6,394.6z M-138.2,395.3c0,8.7,4.7,16.5,13,16.5c8.3,0,13.1-7.7,13.1-16.9c0-8.1-4.2-16.6-13-16.6
			C-133.9,378.3-138.2,386.3-138.2,395.3z"/>
		<path class="st0" d="M-68.8,413.6c-2.4,0.8-7,2.2-12.5,2.2c-6.2,0-11.2-1.6-15.2-5.4c-3.5-3.4-5.7-8.8-5.7-15.2
			c0.1-12.1,8.4-21,22.1-21c4.7,0,8.4,1,10.2,1.9l-1.3,4.3c-2.2-1-4.9-1.8-9-1.8c-9.9,0-16.4,6.2-16.4,16.4
			c0,10.3,6.2,16.4,15.7,16.4c3.4,0,5.8-0.5,7-1.1v-12.1h-8.3V394h13.4V413.6z"/>
		<path class="st0" d="M-25.9,394.6c0,14-8.5,21.5-18.9,21.5c-10.8,0-18.3-8.3-18.3-20.7c0-12.9,8-21.4,18.9-21.4
			C-33.1,374-25.9,382.5-25.9,394.6z M-57.5,395.3c0,8.7,4.7,16.5,13,16.5c8.3,0,13.1-7.7,13.1-16.9c0-8.1-4.2-16.6-13-16.6
			C-53.2,378.3-57.5,386.3-57.5,395.3z"/>
	</g>
	<g>
		<path class="st3" d="M-161.9,427.3c-0.3,0.2-1,0.4-1.9,0.4c-2,0-3.4-1.4-3.4-3.5c0-2.1,1.4-3.6,3.6-3.6c0.7,0,1.4,0.2,1.7,0.3
			l-0.3,1c-0.3-0.2-0.8-0.3-1.4-0.3c-1.6,0-2.4,1.1-2.4,2.6c0,1.6,1,2.5,2.3,2.5c0.7,0,1.2-0.2,1.5-0.3L-161.9,427.3z"/>
		<path class="st3" d="M-154.8,425.8c0,0.7,0,1.3,0.1,1.8h-1.1l-0.1-1.1h0c-0.3,0.5-1,1.3-2.2,1.3c-1.1,0-2.3-0.6-2.3-3v-4h1.2v3.7
			c0,1.3,0.4,2.2,1.5,2.2c0.8,0,1.4-0.6,1.6-1.1c0.1-0.2,0.1-0.4,0.1-0.6v-4.2h1.2V425.8z"/>
		<path class="st3" d="M-152.9,426.3c0.4,0.2,1,0.5,1.6,0.5c0.9,0,1.3-0.4,1.3-1c0-0.6-0.3-0.9-1.3-1.2c-1.2-0.4-1.8-1.1-1.8-1.9
			c0-1.1,0.9-2,2.3-2c0.7,0,1.3,0.2,1.7,0.4l-0.3,0.9c-0.3-0.2-0.8-0.4-1.4-0.4c-0.7,0-1.1,0.4-1.1,0.9c0,0.6,0.4,0.8,1.3,1.1
			c1.2,0.4,1.8,1,1.8,2c0,1.2-0.9,2-2.5,2c-0.7,0-1.4-0.2-1.9-0.5L-152.9,426.3z"/>
		<path class="st3" d="M-145.7,418.9v1.9h1.8v0.9h-1.8v3.6c0,0.8,0.2,1.3,0.9,1.3c0.3,0,0.6,0,0.7-0.1l0.1,0.9
			c-0.2,0.1-0.6,0.2-1.1,0.2c-0.6,0-1-0.2-1.3-0.5c-0.3-0.4-0.5-1-0.5-1.8v-3.7h-1v-0.9h1v-1.6L-145.7,418.9z"/>
		<path class="st3" d="M-136.5,424.2c0,2.5-1.7,3.6-3.4,3.6c-1.8,0-3.2-1.3-3.2-3.5c0-2.3,1.5-3.6,3.4-3.6
			C-137.8,420.7-136.5,422.1-136.5,424.2z M-141.9,424.2c0,1.5,0.9,2.6,2.1,2.6c1.2,0,2.1-1.1,2.1-2.6c0-1.1-0.6-2.6-2-2.6
			C-141.3,421.6-141.9,422.9-141.9,424.2z"/>
		<path class="st3" d="M-135,422.7c0-0.7,0-1.3-0.1-1.8h1.1l0.1,1.1h0c0.4-0.6,1-1.2,2.1-1.2c0.9,0,1.6,0.6,1.9,1.4h0
			c0.2-0.4,0.5-0.7,0.8-0.9c0.4-0.3,0.9-0.5,1.5-0.5c0.9,0,2.2,0.6,2.2,2.9v4h-1.2v-3.8c0-1.3-0.5-2.1-1.5-2.1
			c-0.7,0-1.2,0.5-1.5,1.1c-0.1,0.2-0.1,0.4-0.1,0.6v4.2h-1.2v-4.1c0-1.1-0.5-1.9-1.4-1.9c-0.8,0-1.3,0.6-1.5,1.2
			c-0.1,0.2-0.1,0.4-0.1,0.6v4.1h-1.2V422.7z"/>
		<path class="st3" d="M-120.3,417.7h1.2v9.9h-1.2V417.7z"/>
		<path class="st3" d="M-110.9,424.2c0,2.5-1.7,3.6-3.4,3.6c-1.8,0-3.2-1.3-3.2-3.5c0-2.3,1.5-3.6,3.4-3.6
			C-112.2,420.7-110.9,422.1-110.9,424.2z M-116.3,424.2c0,1.5,0.9,2.6,2.1,2.6c1.2,0,2.1-1.1,2.1-2.6c0-1.1-0.6-2.6-2-2.6
			C-115.6,421.6-116.3,422.9-116.3,424.2z"/>
		<path class="st3" d="M-103.5,420.8c0,0.5-0.1,1-0.1,1.9v3.9c0,1.6-0.3,2.5-1,3.1c-0.7,0.6-1.6,0.8-2.5,0.8c-0.8,0-1.7-0.2-2.3-0.6
			l0.3-0.9c0.4,0.3,1.1,0.5,2,0.5c1.3,0,2.2-0.7,2.2-2.4v-0.8h0c-0.4,0.6-1.1,1.1-2.2,1.1c-1.7,0-2.9-1.4-2.9-3.3
			c0-2.3,1.5-3.6,3-3.6c1.2,0,1.8,0.6,2.1,1.2h0l0.1-1H-103.5z M-104.8,423.5c0-0.2,0-0.4-0.1-0.6c-0.2-0.7-0.8-1.3-1.7-1.3
			c-1.2,0-2,1-2,2.6c0,1.3,0.7,2.4,2,2.4c0.8,0,1.4-0.5,1.7-1.3c0.1-0.2,0.1-0.4,0.1-0.7V423.5z"/>
		<path class="st3" d="M-95.4,424.2c0,2.5-1.7,3.6-3.4,3.6c-1.8,0-3.2-1.3-3.2-3.5c0-2.3,1.5-3.6,3.4-3.6
			C-96.7,420.7-95.4,422.1-95.4,424.2z M-100.8,424.2c0,1.5,0.9,2.6,2.1,2.6c1.2,0,2.1-1.1,2.1-2.6c0-1.1-0.6-2.6-2-2.6
			C-100.2,421.6-100.8,422.9-100.8,424.2z"/>
		<path class="st3" d="M-85,417.7v8.2c0,0.6,0,1.3,0.1,1.7h-1.1l-0.1-1.2h0c-0.4,0.8-1.2,1.3-2.3,1.3c-1.6,0-2.9-1.4-2.9-3.4
			c0-2.3,1.4-3.6,3-3.6c1,0,1.7,0.5,2,1h0v-4H-85z M-86.3,423.6c0-0.2,0-0.4-0.1-0.5c-0.2-0.8-0.9-1.4-1.8-1.4c-1.3,0-2,1.1-2,2.6
			c0,1.4,0.7,2.5,2,2.5c0.8,0,1.6-0.5,1.8-1.5c0-0.2,0.1-0.3,0.1-0.5V423.6z"/>
		<path class="st3" d="M-82.3,424.4c0,1.7,1.1,2.3,2.3,2.3c0.9,0,1.4-0.2,1.9-0.3l0.2,0.9c-0.4,0.2-1.2,0.4-2.3,0.4
			c-2.1,0-3.3-1.4-3.3-3.4c0-2,1.2-3.6,3.2-3.6c2.2,0,2.8,1.9,2.8,3.2c0,0.3,0,0.4,0,0.6H-82.3z M-78.7,423.6c0-0.8-0.3-2-1.7-2
			c-1.2,0-1.8,1.1-1.9,2H-78.7z"/>
		<path class="st3" d="M-76.2,426.3c0.4,0.2,1,0.5,1.6,0.5c0.9,0,1.3-0.4,1.3-1c0-0.6-0.3-0.9-1.3-1.2c-1.2-0.4-1.8-1.1-1.8-1.9
			c0-1.1,0.9-2,2.3-2c0.7,0,1.3,0.2,1.7,0.4l-0.3,0.9c-0.3-0.2-0.8-0.4-1.4-0.4c-0.7,0-1.1,0.4-1.1,0.9c0,0.6,0.4,0.8,1.3,1.1
			c1.2,0.4,1.8,1,1.8,2c0,1.2-0.9,2-2.5,2c-0.7,0-1.4-0.2-1.9-0.5L-76.2,426.3z"/>
		<path class="st3" d="M-65.6,427.3c-0.3,0.2-1,0.4-1.9,0.4c-2,0-3.4-1.4-3.4-3.5c0-2.1,1.4-3.6,3.6-3.6c0.7,0,1.4,0.2,1.7,0.3
			l-0.3,1c-0.3-0.2-0.8-0.3-1.4-0.3c-1.6,0-2.4,1.1-2.4,2.6c0,1.6,1,2.5,2.3,2.5c0.7,0,1.2-0.2,1.5-0.3L-65.6,427.3z"/>
		<path class="st3" d="M-64.2,422.9c0-0.8,0-1.5-0.1-2.1h1.1l0,1.3h0.1c0.3-0.9,1-1.5,1.9-1.5c0.1,0,0.2,0,0.3,0v1.2
			c-0.1,0-0.3,0-0.4,0c-0.9,0-1.5,0.7-1.6,1.6c0,0.2-0.1,0.4-0.1,0.6v3.6h-1.2V422.9z"/>
		<path class="st3" d="M-58.2,418.9c0,0.4-0.3,0.8-0.8,0.8c-0.4,0-0.7-0.3-0.7-0.8c0-0.4,0.3-0.8,0.8-0.8
			C-58.5,418.2-58.2,418.5-58.2,418.9z M-59.6,427.6v-6.8h1.2v6.8H-59.6z"/>
		<path class="st3" d="M-56.3,423c0-0.9,0-1.6-0.1-2.2h1.1l0.1,1.2h0c0.5-0.8,1.3-1.3,2.4-1.3c1.6,0,2.9,1.4,2.9,3.4
			c0,2.4-1.5,3.6-3.1,3.6c-0.9,0-1.7-0.4-2.1-1.1h0v3.7h-1.2V423z M-55.1,424.8c0,0.2,0,0.3,0.1,0.5c0.2,0.9,1,1.4,1.8,1.4
			c1.3,0,2.1-1.1,2.1-2.6c0-1.4-0.7-2.5-2-2.5c-0.8,0-1.6,0.6-1.9,1.5c0,0.2-0.1,0.3-0.1,0.5V424.8z"/>
		<path class="st3" d="M-46.9,418.9v1.9h1.8v0.9h-1.8v3.6c0,0.8,0.2,1.3,0.9,1.3c0.3,0,0.6,0,0.7-0.1l0.1,0.9
			c-0.2,0.1-0.6,0.2-1.1,0.2c-0.6,0-1-0.2-1.3-0.5c-0.3-0.4-0.5-1-0.5-1.8v-3.7h-1v-0.9h1v-1.6L-46.9,418.9z"/>
		<path class="st3" d="M-42.3,418.9c0,0.4-0.3,0.8-0.8,0.8c-0.4,0-0.7-0.3-0.7-0.8c0-0.4,0.3-0.8,0.8-0.8
			C-42.6,418.2-42.3,418.5-42.3,418.9z M-43.7,427.6v-6.8h1.2v6.8H-43.7z"/>
		<path class="st3" d="M-34.3,424.2c0,2.5-1.7,3.6-3.4,3.6c-1.8,0-3.2-1.3-3.2-3.5c0-2.3,1.5-3.6,3.4-3.6
			C-35.6,420.7-34.3,422.1-34.3,424.2z M-39.7,424.2c0,1.5,0.9,2.6,2.1,2.6c1.2,0,2.1-1.1,2.1-2.6c0-1.1-0.6-2.6-2-2.6
			C-39,421.6-39.7,422.9-39.7,424.2z"/>
		<path class="st3" d="M-32.8,422.7c0-0.7,0-1.3-0.1-1.8h1.1l0.1,1.1h0c0.3-0.6,1.1-1.3,2.2-1.3c0.9,0,2.4,0.6,2.4,2.9v4h-1.2v-3.9
			c0-1.1-0.4-2-1.6-2c-0.8,0-1.4,0.6-1.6,1.3c-0.1,0.2-0.1,0.4-0.1,0.6v4.1h-1.2V422.7z"/>
	</g>
</g>
</svg>
