<svg id="Слой_1" xmlns="http://www.w3.org/2000/svg" viewBox="-276.4 379.5 22.8 35"><style>.st0{fill:#fff}.st1{fill:#8dc63f}</style><path class="st0" d="M-276.4 391v12.2c0 6.2 5.2 11.4 11.4 11.4 3.1 0 5.9-1.3 8.1-3.4 2.1-2.1 3.3-4.9 3.4-8.1v-12.2c0-6.2-5.2-11.4-11.4-11.4-6.4 0-11.5 5.1-11.5 11.5zm21.3-.1V403c0 5.4-4.5 9.8-9.9 9.9-5.5 0-9.9-4.4-9.9-9.9v-12.2c.1-5.4 4.5-9.8 9.9-9.9 5.4.2 9.8 4.5 9.9 10z"/><path class="st1" d="M-265.8 386v8.5c0 .4.4.8.8.8.1 0 .4-.1.5-.2.1-.1.2-.4.2-.5v-8.5c0-.4-.4-.8-.8-.8-.4-.1-.7.3-.7.7z"/></svg>