<svg xmlns="http://www.w3.org/2000/svg" viewBox="0 0 489.43 489.43"><path fill="#445876" d="M244.715 489.43l-6.457-7.954C232.013 473.783 85.36 291.532 85.36 159.355 85.36 71.487 156.847 0 244.715 0S404.07 71.487 404.07 159.355c0 132.177-146.653 314.428-152.899 322.121l-6.456 7.954zm0-472.794c-78.7 0-142.72 64.02-142.72 142.72 0 110.975 114.065 266.171 142.72 303.391 28.654-37.219 142.72-192.416 142.72-303.391 0-78.7-64.02-142.72-142.72-142.72z"/><path fill="#445876" d="M223.492 225.905a76.39 76.39 0 0 1-8.979-3.228 76.502 76.502 0 0 1-17.101-10.223l10.325-13.044a60 60 0 0 0 13.371 7.998 58.473 58.473 0 0 0 7.009 2.516l-4.625 15.981zm24.674 2.996v-16.636c30 0 56.177-26.454 56.177-56.454h16.636c0 38-35.813 73.09-72.813 73.09z"/><path fill="#445876" d="M244.715 265.844c-62.42 0-113.207-50.787-113.207-113.207S182.295 39.43 244.715 39.43s113.207 50.787 113.207 113.207-50.787 113.207-113.207 113.207zm0-209.778c-53.252 0-96.571 43.32-96.571 96.571s43.32 96.571 96.571 96.571 96.571-43.32 96.571-96.571-43.319-96.571-96.571-96.571z"/></svg>