<svg xmlns="http://www.w3.org/2000/svg" width="97.073" height="97.073" viewBox="0 0 97.073 97.073"><path fill="#fefefe" d="M96.771 28.015a1.998 1.998 0 0 0-2.259-.861c-1.603.469-3.637.895-6.047 1.266 2.232-1.142 4.011-2.364 5.28-3.635a2 2 0 0 0-2.26-3.225c-2.331 1.091-4.868 1.651-7.542 1.667-4.556-9.77-12.692-13.387-13.005-13.522-4.966-2.253-9.696-2.929-13.926-1.99-11.329 2.517-16.511 15.99-14.816 27.031-3.011-.208-19.053-1.823-39.209-13.267A2.003 2.003 0 0 0 0 23.256c.235 11.954 11.155 17.66 15.838 19.558-.99.102-2.515.124-3.994.062a2 2 0 0 0-1.188 3.663c3.279 2.185 6.566 3.617 9.77 4.261a58.94 58.94 0 0 1-2.117.103 2 2 0 0 0-.94 3.728c2.998 1.741 7.652 3.817 12.814 3.817l.372-.004h-.001a14.73 14.73 0 0 1-1.903.549c-.212.047-.425.091-.637.13a2.001 2.001 0 0 0-.229 3.874c3.797 1.188 7.34 1.463 10.351.793.567-.126 1.127-.29 1.66-.484h.001c-.081 3.068-1.695 13.383-19.041 17.236l-.226.048c-1.088.242-3.392.524-6.305.524-1.2 0-2.403-.047-3.578-.139a1.99 1.99 0 0 0-2.091 1.487 1.999 1.999 0 0 0 1.095 2.321c6.643 3.073 13.941 4.75 21.694 4.983l.061.001a57.04 57.04 0 0 0 12.354-1.353c7.41-1.646 14.61-4.807 21.398-9.395l.003-.001c.149-.058.292-.132.424-.224C75.247 72.128 82.356 62.8 86.71 51.067c.016-.04.028-.081.041-.122 1.762-5.874 2.371-11.186 1.814-15.788 3.432-1.105 6.117-2.701 7.983-4.741a1.99 1.99 0 0 0 .223-2.401z"/></svg>